# xmcd CD database file
#
# Track frame offsets:
#	150
#	16380
#	29442
#	44512
#	59897
#	70167
#	83016
#	97871
#	113606
#	128834
#	144519
#	159444
#	175445
#
# Disc length: 2541 seconds
#
# Revision: 0
# Processed by: cddbd v1.5.1PL0 Copyright (c) Steve Scherf et al.
# Submitted via: CDex 1.51
#
DISCID=ad09eb0d
DTITLE=GLENN MILLER - GLENN MILLER/BIG ARTIST ALBUM
DYEAR=1900
DGENRE=Big Band
TTITLE0=イン・ザ・ムード/IN THE MOOD
TTITLE1=茶色の小瓶/LITTLE BROWN JUG
TTITLE2=パーフィディア/PERFIDIA
TTITLE3=スター・ダスト/STAR DUST
TTITLE4=ダニー・ボーイ/DANNY BOY
TTITLE5=ジョンソン・ラグJUHNSON RAG
TTITLE6=ペンシルヴァニア-5000/PENSYLVANIA 6-5000
TTITLE7=チャタヌガ・チュー・チュー/CHATANOOGA CHOO-CHOO
TTITLE8=アメリカン・パトロール/AMERICAN PATROL
TTITLE9=サンライズ・セレナーデ/SUNRISE SERENADE
TTITLE10=真珠の首飾り/A STRING OF PEARL
TTITLE11=セントルイス・ブルース・マーチ/ST LOUIS BLUES MARCH
TTITLE12=ムーンライト・セレナーデ/MOONLIGHT SERENADE
EXTD=
EXTT0=
EXTT1=
EXTT2=
EXTT3=
EXTT4=
EXTT5=
EXTT6=
EXTT7=
EXTT8=
EXTT9=
EXTT10=
EXTT11=
EXTT12=
PLAYORDER=
